<svg width="66" height="67" viewBox="0 0 66 67" fill="none" xmlns="http://www.w3.org/2000/svg">
<path d="M65.9774 66.0733L0.522679 65.5811C0.522679 50.3248 0.424251 18.7293 0.0305379 14.3985C-0.363175 10.0676 3.14743 8.98493 4.95195 8.98493H15.779V5.04781C15.3853 1.11068 18.5678 0.126393 20.2083 0.126389H44.8154C49.1462 -0.661036 50.2289 2.42305 50.2289 4.06352V8.98493H61.5482C65.4853 8.98493 66.1415 12.2659 65.9774 13.9063V66.0733Z" fill="#00FF29"/>
<path d="M26.5757 65.947H30.0207V50.7837H35.9264V65.947H39.3713V47.2456H26.5757V65.947Z" fill="black"/>
<path d="M13.7797 50.6901H7.87402V47.2451H13.7797V50.6901Z" fill="black"/>
<path d="M58.0727 50.6901H52.167V47.2451H58.0727V50.6901Z" fill="black"/>
<path d="M13.7797 41.8317H7.87402V38.3867H13.7797V41.8317Z" fill="black"/>
<path d="M58.0727 41.8317H52.167V38.3867H58.0727V41.8317Z" fill="black"/>
<path d="M13.7797 31.9889H7.87402V28.5439H13.7797V31.9889Z" fill="black"/>
<path d="M58.0727 31.9889H52.167V28.5439H58.0727V31.9889Z" fill="black"/>
<path d="M58.0727 23.1305H52.167V19.6855H58.0727V23.1305Z" fill="black"/>
<path d="M13.7797 23.1305H7.87402V19.6855H13.7797V23.1305Z" fill="black"/>
<path d="M30.5126 13.2878H24.6069V9.84277H30.5126V13.2878Z" fill="black"/>
<path d="M30.5126 23.1305H24.6069V19.6855H30.5126V23.1305Z" fill="black"/>
<path d="M30.5126 31.9889H24.6069V28.5439H30.5126V31.9889Z" fill="black"/>
<path d="M30.5126 41.8317H24.6069V38.3867H30.5126V41.8317Z" fill="black"/>
<path d="M42.3241 13.2878H36.4185V9.84277H42.3241V13.2878Z" fill="black"/>
<path d="M42.3241 23.1305H36.4185V19.6855H42.3241V23.1305Z" fill="black"/>
<path d="M42.3241 31.9889H36.4185V28.5439H42.3241V31.9889Z" fill="black"/>
<path d="M42.3241 41.8317H36.4185V38.3867H42.3241V41.8317Z" fill="black"/>
</svg>
