<svg width="122" height="89" viewBox="0 0 122 89" fill="none" xmlns="http://www.w3.org/2000/svg">
<path d="M95.2603 88.7877H26.7397V59.8157C54.626 36.8089 85.6993 49.8743 95.2603 59.8157V88.7877Z" fill="#00FF29"/>
<path d="M100.274 64.5547C100.274 56.5328 92.4747 51.7419 88.5752 50.3492C102.614 47.0068 116.708 56.7556 122 62.0479V88.7876H100.274V64.5547Z" fill="#00FF29"/>
<path d="M21.7262 64.5547C21.7262 56.5328 29.5253 51.7419 33.4248 50.3492C19.3864 47.0068 5.29239 56.7556 0.000148773 62.0479V88.7876H21.7262V64.5547Z" fill="#00FF29"/>
<circle cx="60.9998" cy="21.1028" r="20.8904" fill="#00FF29"/>
<path d="M76.877 40.3219C90.9153 30.2945 86.6258 13.8607 82.7263 6.89727C105.455 3.55481 109.466 19.4315 108.63 27.7877C104.619 49.848 85.7902 45.3356 76.877 40.3219Z" fill="#00FF29"/>
<path d="M45.2236 40.3219C31.1853 30.2945 35.4748 13.8607 39.3743 6.89727C16.6456 3.55481 12.6346 19.4315 13.4702 27.7877C17.4812 49.848 36.3104 45.3356 45.2236 40.3219Z" fill="#00FF29"/>
</svg>
