<svg xmlns="http://www.w3.org/2000/svg" viewBox="0 0 242 242.53"><defs><style>.cls-1{fill:#89c870}</style></defs><g id="Layer_2" data-name="Layer 2"><g id="Layer_1-2" data-name="Layer 1"><path d="M121.5,0A30.5,30.5,0,1,0,152,30.5,30.51,30.51,0,0,0,121.5,0Zm0,41a11,11,0,1,1,11-11A11,11,0,0,1,121.5,41Z" class="cls-1"/><path d="M182.5,34A30.5,30.5,0,1,0,213,64.5,30.51,30.51,0,0,0,182.5,34Zm0,41a11,11,0,1,1,11-11A11,11,0,0,1,182.5,75Z" class="cls-1"/><path d="M211.5,121A30.5,30.5,0,1,0,242,151.5,30.51,30.51,0,0,0,211.5,121Zm0,41a11,11,0,1,1,11-11A11,11,0,0,1,211.5,162Z" class="cls-1"/><path d="M30.5,130A30.5,30.5,0,1,0,61,160.5,30.51,30.51,0,0,0,30.5,130Zm0,41a11,11,0,1,1,11-11A11,11,0,0,1,30.5,171Z" class="cls-1"/><path d="M61.5,46A30.5,30.5,0,1,0,92,76.5,30.51,30.51,0,0,0,61.5,46Zm0,41a11,11,0,1,1,11-11A11,11,0,0,1,61.5,87Z" class="cls-1"/><polygon points="59.93 168.52 92 188.4 92 242.53 69.54 242.53 69.54 200.5 46.78 186.29 59.93 168.52" class="cls-1"/><polygon points="50.5 104.95 50.5 125.5 110.5 166.87 110.5 242.53 136.18 242.53 224 202.5 224 177.85 200.5 177.85 200.5 188.83 132.5 219.21 132.5 187.3 166.56 173.74 167 126.5 193.5 114.79 193.5 90.02 170.39 90.02 170.39 102.53 147 112.5 147 160 132.5 166.28 132.5 55.5 110.5 55.5 110.5 141.6 71 115.5 71 105.34 50.5 104.95" class="cls-1"/></g></g></svg>